<svg xmlns="http://www.w3.org/2000/svg" width="1200" height="630" viewBox="0 0 1200 630" role="img" aria-label="Maxis Authorized Reseller">
  <rect width="1200" height="630" fill="#191c15"/>
  <g transform="translate(980,60) scale(3.2)" opacity="0.25"><path fill="#8DC63F" d="M50.5,29.9c-1.9-4.9-5.8-10.8-9-14.4c1.8,1,4,2.2,5.3,2.9c1.1,0.6,2.1,0.7,2.8,0.2c0.7-0.5,1.5-1.8,0.2-4.7C46.2,6.3,38.3,1.1,29.6,0c-0.9-0.1-1.5,0.2-1.6,0.8c-0.1,0.6,0.3,1.2,1.2,1.5c4.5,1.3,9.9,3.9,13.2,9.7C33.8,6.7,24.7,3.8,16,2.7c-1.2-0.2-2,0.3-2.1,1.1c-0.1,0.8,0.4,1.5,1.7,1.8c8.1,2.2,18.6,6.7,25.9,19.7C32.1,17.3,17.9,10.9,6.1,9.1c-1.3-0.2-2.1,0.3-2.3,1.1c-0.2,0.8,0.3,1.6,1.7,2.1c9.2,3,22.2,10.1,29,24.6c-6.8-7.2-21.2-15-31.8-17.4c-1.4-0.3-2.2,0.1-2.5,0.9c-0.3,0.8,0.2,1.7,1.5,2.3c5.9,2.6,14.5,8.1,18.9,17.1c-2.6-1.9-7.6-5.6-13.1-7.2c-4.8-1.4-7.3,0.9-4.6,5.8c1.9,3.5,6.3,7.7,10,10c1.5,0.9,2.7-0.6,1.3-1.9c-3.1-2.9-5.4-5.4-6.1-6.9c-0.5-1.2,0.3-1.7,1.7-1c4.9,2.3,9.7,6.5,12.6,9.1c1.3,1.1,3.3,3,5.4,2.3c1.7-0.6,2.1-2.7,1.3-5.4c-1.1-3.8-3.1-7.1-4.4-9.3c3.6,2.7,7.7,6.5,11.2,9.9c1.8,1.8,4,3.6,6.2,2.7c2-0.8,2.1-3.4,1.5-5.8C42.4,37,38.9,31,36.7,27.8c2.2,1.4,5.7,4.3,8.5,6.4c1.8,1.4,3.3,1.7,4.5,1C51,34.5,51.4,32.4,50.5,29.9L50.5,29.9z"/></g>
  <g transform="translate(-40,360) scale(3.2)" opacity="0.12"><path fill="#8DC63F" d="M50.5,29.9c-1.9-4.9-5.8-10.8-9-14.4c1.8,1,4,2.2,5.3,2.9c1.1,0.6,2.1,0.7,2.8,0.2c0.7-0.5,1.5-1.8,0.2-4.7C46.2,6.3,38.3,1.1,29.6,0c-0.9-0.1-1.5,0.2-1.6,0.8c-0.1,0.6,0.3,1.2,1.2,1.5c4.5,1.3,9.9,3.9,13.2,9.7C33.8,6.7,24.7,3.8,16,2.7c-1.2-0.2-2,0.3-2.1,1.1c-0.1,0.8,0.4,1.5,1.7,1.8c8.1,2.2,18.6,6.7,25.9,19.7C32.1,17.3,17.9,10.9,6.1,9.1c-1.3-0.2-2.1,0.3-2.3,1.1c-0.2,0.8,0.3,1.6,1.7,2.1c9.2,3,22.2,10.1,29,24.6c-6.8-7.2-21.2-15-31.8-17.4c-1.4-0.3-2.2,0.1-2.5,0.9c-0.3,0.8,0.2,1.7,1.5,2.3c5.9,2.6,14.5,8.1,18.9,17.1c-2.6-1.9-7.6-5.6-13.1-7.2c-4.8-1.4-7.3,0.9-4.6,5.8c1.9,3.5,6.3,7.7,10,10c1.5,0.9,2.7-0.6,1.3-1.9c-3.1-2.9-5.4-5.4-6.1-6.9c-0.5-1.2,0.3-1.7,1.7-1c4.9,2.3,9.7,6.5,12.6,9.1c1.3,1.1,3.3,3,5.4,2.3c1.7-0.6,2.1-2.7,1.3-5.4c-1.1-3.8-3.1-7.1-4.4-9.3c3.6,2.7,7.7,6.5,11.2,9.9c1.8,1.8,4,3.6,6.2,2.7c2-0.8,2.1-3.4,1.5-5.8C42.4,37,38.9,31,36.7,27.8c2.2,1.4,5.7,4.3,8.5,6.4c1.8,1.4,3.3,1.7,4.5,1C51,34.5,51.4,32.4,50.5,29.9L50.5,29.9z"/></g>
  <text x="80" y="250" font-family="Manrope, Arial, sans-serif" font-size="40" font-weight="700" fill="#8DC63F" letter-spacing="2">MAXIS AUTHORIZED RESELLER</text>
  <text x="78" y="340" font-family="Manrope, Arial, sans-serif" font-size="76" font-weight="800" fill="#ffffff">Phones, plans &amp; fibre —</text>
  <text x="78" y="430" font-family="Manrope, Arial, sans-serif" font-size="76" font-weight="800" fill="#ffffff">sorted over WhatsApp.</text>
  <text x="80" y="510" font-family="Manrope, Arial, sans-serif" font-size="34" font-weight="600" fill="#c3cbb4">Putra Heights · Petaling Jaya · Selangor</text>
</svg>