<svg version="1.1" id="Layer_1" xmlns:x="ns_extend;" xmlns:i="ns_ai;" xmlns:graph="ns_graphs;" xmlns="http://www.w3.org/2000/svg" xmlns:xlink="http://www.w3.org/1999/xlink" x="0px" y="0px" viewBox="0 0 173 50" style="enable-background:new 0 0 173 50;" xml:space="preserve">
 <style type="text/css">
  .st0{fill:#40C706;}
	.st1{fill:#002391;}
 </style>
 <metadata>
  <sfw xmlns="ns_sfw;">
   <slices>
   </slices>
   <sliceSourceBounds bottomLeftOrigin="true" height="50" width="173" x="0" y="0">
   </sliceSourceBounds>
  </sfw>
 </metadata>
 <g>
  <g>
   <g>
    <g>
     <g>
      <path class="st0" d="M172.5,29.9c-1.9-4.9-5.8-10.8-9-14.4c1.8,1,4,2.2,5.3,2.9c1.1,0.6,2.1,0.7,2.8,0.2
						c0.7-0.5,1.5-1.8,0.2-4.7c-3.5-7.7-11.5-12.9-20.1-14c-0.9-0.1-1.5,0.2-1.6,0.8c-0.1,0.6,0.3,1.2,1.2,1.5
						c4.5,1.3,9.9,3.9,13.2,9.7c-8.6-5.2-17.8-8.1-26.4-9.3c-1.2-0.2-2,0.3-2.1,1.1c-0.1,0.8,0.4,1.5,1.7,1.8
						c8.1,2.2,18.6,6.7,25.9,19.7c-9.4-7.9-23.6-14.3-35.4-16.2c-1.3-0.2-2.1,0.3-2.3,1.1c-0.2,0.8,0.3,1.6,1.7,2.1
						c9.2,3,22.2,10.1,29,24.6c-6.8-7.2-21.2-15-31.8-17.4c-1.4-0.3-2.2,0.1-2.5,0.9c-0.3,0.8,0.2,1.7,1.5,2.3
						c5.9,2.6,14.5,8.1,18.9,17.1c-2.6-1.9-7.6-5.6-13.1-7.2c-4.8-1.4-7.3,0.9-4.6,5.8c1.9,3.5,6.3,7.7,10,10
						c1.5,0.9,2.7-0.6,1.3-1.9c-3.1-2.9-5.4-5.4-6.1-6.9c-0.5-1.2,0.3-1.7,1.7-1c4.9,2.3,9.7,6.5,12.6,9.1c1.3,1.1,3.3,3,5.4,2.3
						c1.7-0.6,2.1-2.7,1.3-5.4c-1.1-3.8-3.1-7.1-4.4-9.3c3.6,2.7,7.7,6.5,11.2,9.9c1.8,1.8,4,3.6,6.2,2.7c2-0.8,2.1-3.4,1.5-5.8
						c-1.2-4.9-4.7-10.9-6.9-14.2c2.2,1.4,5.7,4.3,8.5,6.4c1.8,1.4,3.3,1.7,4.5,1C173,34.5,173.4,32.4,172.5,29.9L172.5,29.9z">
      </path>
      <path class="st1" d="M78.5,19h-6l-4,6.2L64.5,19h-6l6.7,9.7L58,39h5.9l4.6-6.8l4.6,6.8H79l-7.2-10.3L78.5,19z M85,10
						c-1.7,0-3,1.3-3,3s1.3,3,3,3c1.7,0,3-1.3,3-3S86.7,10,85,10z M24.9,18c-3.2,0-5.9,1.9-7.1,3.7c-0.8-2.3-2.7-3.7-5.7-3.7
						c-3.2,0-5.9,2-6.7,3.2l-1.8-2.7H0V39h5.4V25.2c0.8-1.1,2.4-2.4,4.3-2.4c2.2,0,3.1,1.4,3.1,3.3V39h5.5V25.2
						c0.8-1.1,2.3-2.4,4.3-2.4c2.2,0,3.1,1.4,3.1,3.3V39H31V24.2C31,20,28.7,18,24.9,18z M46.1,18c-3.2,0-6.2,1-9.1,2.7l2.2,3.3
						c1.7-1.1,3.9-1.8,6-1.8c2.7,0,4.5,1.3,4.5,3.4v2c-1.5-0.7-3.3-1.5-6.5-1.4c-3.3,0.1-7.1,2-7.1,6.3c0,4.5,3.9,6.6,7.1,6.6
						c2.7,0,5.1-1.1,6.5-2.3v1.8H55V25.6C55,19.8,50.7,18,46.1,18z M49.6,34c-1,0.8-2.6,1.4-4.3,1.4c-2.1,0-3.9-1.1-3.9-2.9
						c0-1.9,1.6-3.1,3.7-3.1c1.7,0,3.6,0.5,4.5,1.2C49.6,30.5,49.6,34,49.6,34z M82,19h6v20h-6V19z M102.8,26
						c-2.3-0.5-3.9-0.9-3.9-2.2c0-1.2,1.3-1.9,3.2-1.9c2.4,0,4.6,0.9,5.9,2.1l2.3-3.4c-2-1.6-4.8-2.7-8.2-2.7
						c-5.4,0-8.4,2.9-8.4,6.3c0,4.8,4.5,5.6,8.1,6.3c2.3,0.5,4.1,0.9,4.1,2.4c0,1.2-1.1,2-3.4,2c-2.5,0-5.5-1.3-7-2.7L93,35.9
						c2.2,1.9,5.6,3.1,9.1,3.1c5.7,0,8.9-2.7,8.9-6.4C111,27.6,106.3,26.7,102.8,26z">
      </path>
     </g>
    </g>
   </g>
  </g>
 </g>
</svg>